<svg width="24" height="24" viewBox="0 0 24 24" fill="none" xmlns="http://www.w3.org/2000/svg">
<g clip-path="url(#clip0_242_50653)">
<path d="M17 3.33989C18.5202 4.21758 19.7826 5.47997 20.6603 7.00017C21.538 8.52038 22 10.2448 22 12.0002C22 13.7556 21.5379 15.48 20.6602 17.0002C19.7825 18.5204 18.5201 19.7828 16.9999 20.6605C15.4797 21.5381 13.7552 22.0002 11.9998 22.0001C10.2445 22.0001 8.52002 21.538 6.99984 20.6603C5.47965 19.7826 4.21729 18.5202 3.33964 17C2.46198 15.4797 1.99996 13.7553 2 11.9999L2.005 11.6759C2.061 9.94888 2.56355 8.26585 3.46364 6.79089C4.36373 5.31592 5.63065 4.09934 7.14089 3.25978C8.65113 2.42021 10.3531 1.98629 12.081 2.00033C13.8089 2.01437 15.5036 2.47589 17 3.33989ZM16.914 8.40589C17.286 7.56889 16.431 6.71389 15.594 7.08589L6.594 11.0859L6.486 11.1409C5.736 11.5809 5.875 12.7499 6.757 12.9709L10.175 13.8239L11.03 17.2429C11.26 18.1649 12.528 18.2749 12.914 17.4059L16.914 8.40589Z" fill="black"/>
</g>
<defs>
<clipPath id="clip0_242_50653">
<rect width="24" height="24" fill="white"/>
</clipPath>
</defs>
</svg>
