<svg width="25" height="24" viewBox="0 0 25 24" fill="none" xmlns="http://www.w3.org/2000/svg">
<g clip-path="url(#clip0_265_56331)">
<path d="M3.5 21L5.15 17.2C3.88766 15.408 3.32267 13.217 3.56104 11.0381C3.79942 8.85915 4.82479 6.84211 6.44471 5.36549C8.06463 3.88887 10.1677 3.05418 12.3594 3.01807C14.551 2.98195 16.6805 3.7469 18.3482 5.16934C20.0159 6.59179 21.1071 8.57395 21.4172 10.7438C21.7272 12.9137 21.2347 15.1222 20.0321 16.9547C18.8295 18.7873 16.9994 20.118 14.8854 20.6971C12.7713 21.2762 10.5186 21.0639 8.55 20.1L3.5 21Z" stroke="black" stroke-width="2" stroke-linecap="round" stroke-linejoin="round"/>
<path d="M9.5 10C9.5 10.1326 9.55268 10.2598 9.64645 10.3536C9.74021 10.4473 9.86739 10.5 10 10.5C10.1326 10.5 10.2598 10.4473 10.3536 10.3536C10.4473 10.2598 10.5 10.1326 10.5 10V9C10.5 8.86739 10.4473 8.74021 10.3536 8.64645C10.2598 8.55268 10.1326 8.5 10 8.5C9.86739 8.5 9.74021 8.55268 9.64645 8.64645C9.55268 8.74021 9.5 8.86739 9.5 9V10ZM9.5 10C9.5 11.3261 10.0268 12.5979 10.9645 13.5355C11.9021 14.4732 13.1739 15 14.5 15M14.5 15H15.5C15.6326 15 15.7598 14.9473 15.8536 14.8536C15.9473 14.7598 16 14.6326 16 14.5C16 14.3674 15.9473 14.2402 15.8536 14.1464C15.7598 14.0527 15.6326 14 15.5 14H14.5C14.3674 14 14.2402 14.0527 14.1464 14.1464C14.0527 14.2402 14 14.3674 14 14.5C14 14.6326 14.0527 14.7598 14.1464 14.8536C14.2402 14.9473 14.3674 15 14.5 15Z" stroke="black" stroke-width="2" stroke-linecap="round" stroke-linejoin="round"/>
</g>
<defs>
<clipPath id="clip0_265_56331">
<rect width="24" height="24" fill="white" transform="translate(0.5)"/>
</clipPath>
</defs>
</svg>
