<svg width="24" height="24" viewBox="0 0 24 24" fill="none" xmlns="http://www.w3.org/2000/svg">
<path d="M12 3.19982C10.9182 3.18382 10.9182 4.81518 12 4.79982H14.4V6.82478L9.91568 10.5592L8.35616 6.39982H8.8C9.88176 6.41582 9.88176 4.78446 8.8 4.79982H5.6C4.51824 4.78382 4.51824 6.41518 5.6 6.39982H6.64368L8.0688 10.1998C7.32032 9.82766 6.48944 9.59982 5.6 9.59982C2.51664 9.59982 0 12.1165 0 15.1998C0 18.2832 2.51664 20.7998 5.6 20.7998C8.68336 20.7998 11.2 18.2832 11.2 15.1998C11.2 14.128 10.8795 13.1341 10.3531 12.2811L14.8656 8.52174L15.6062 10.3781C13.9382 11.3497 12.8 13.1377 12.8 15.1998C12.8 18.2832 15.3166 20.7998 18.4 20.7998C21.4834 20.7998 24 18.2832 24 15.1998C24 12.1165 21.4834 9.59982 18.4 9.59982C17.947 9.59982 17.513 9.66926 17.0906 9.77166L16 7.0435V3.99982C16 3.55806 15.6418 3.19982 15.2 3.19982H12ZM5.6 11.1998C6.54768 11.1998 7.40416 11.5389 8.08752 12.0841L5.08752 14.5841C4.27008 15.2678 5.292 16.4953 6.11248 15.8153L9.11248 13.3153C9.4136 13.8782 9.6 14.5136 9.6 15.1998C9.6 17.4184 7.81856 19.1998 5.6 19.1998C3.38144 19.1998 1.6 17.4184 1.6 15.1998C1.6 12.9813 3.38128 11.1998 5.6 11.1998ZM18.4 11.1998C20.6186 11.1998 22.4 12.9813 22.4 15.1998C22.4 17.4184 20.6186 19.1998 18.4 19.1998C16.1814 19.1998 14.4 17.4184 14.4 15.1998C14.4 13.7966 15.1149 12.5725 16.2 11.8592L17.6563 15.4966C18.0499 16.4936 19.545 15.8968 19.1438 14.9029L17.6907 11.2717C17.9214 11.2307 18.157 11.1998 18.4 11.1998Z" fill="white"/>
</svg>
