<svg width="24" height="24" viewBox="0 0 24 24" fill="none" xmlns="http://www.w3.org/2000/svg">
<path d="M21.1682 6.35113L18.5949 6.31115L17.8192 4.8479L18.5803 3.48976L21.199 3.5539L21.2335 2.65995L17.9692 2.04688L16.5138 4.24339L4.16234 3.6467C2.64843 3.54203 2.44153 5.82201 4.16706 5.8408L16.6411 5.70064L17.8812 7.75219L21.1512 7.23942L21.1682 6.35113ZM4.57398 4.76373C4.56819 5.08587 4.31027 5.39862 3.98713 5.38984C3.66388 5.38686 3.25235 5.22503 3.18536 4.68159C3.19228 4.29577 3.51225 4.00057 3.91093 4.02324C4.23318 4.02909 4.57986 4.4358 4.57398 4.76373Z" fill="white"/>
<path d="M11.8045 8.44784C10.9677 8.43547 10.9677 9.69743 11.8045 9.68555H13.661V11.252L10.1921 14.1408L8.98575 10.9232H9.32909C10.1659 10.9356 10.1659 9.67366 9.32909 9.68555H6.85369C6.01687 9.67317 6.01687 10.9351 6.85369 10.9232H7.66104L8.76346 13.8628C8.18446 13.5749 7.54172 13.3987 6.85369 13.3987C4.46851 13.3987 2.52173 15.3454 2.52173 17.7306C2.52173 20.1158 4.46851 22.0626 6.85369 22.0626C9.23886 22.0626 11.1856 20.1158 11.1856 17.7306C11.1856 16.9015 10.9377 16.1326 10.5305 15.4728L14.0212 12.5647L14.5941 14.0007C13.3038 14.7523 12.4233 16.1355 12.4233 17.7306C12.4233 20.1158 14.3701 22.0626 16.7553 22.0626C19.1405 22.0626 21.0873 20.1158 21.0873 17.7306C21.0873 15.3454 19.1405 13.3987 16.7553 13.3987C16.4049 13.3987 16.0691 13.4524 15.7424 13.5316L14.8987 11.4212V9.0667C14.8987 8.72497 14.6216 8.44784 14.2799 8.44784H11.8045ZM6.85369 14.6364C7.58678 14.6364 8.24932 14.8986 8.77794 15.3204L6.45725 17.2543C5.82491 17.7832 6.61543 18.7328 7.25012 18.2068L9.57081 16.2728C9.80375 16.7083 9.94794 17.1998 9.94794 17.7306C9.94794 19.4468 8.56988 20.8249 6.85369 20.8249C5.13749 20.8249 3.75943 19.4468 3.75943 17.7306C3.75943 16.0144 5.13736 14.6364 6.85369 14.6364ZM16.7553 14.6364C18.4715 14.6364 19.8496 16.0144 19.8496 17.7306C19.8496 19.4468 18.4715 20.8249 16.7553 20.8249C15.0391 20.8249 13.661 19.4468 13.661 17.7306C13.661 16.6451 14.214 15.6982 15.0535 15.1464L16.18 17.9602C16.4845 18.7314 17.641 18.2698 17.3307 17.5009L16.2066 14.6919C16.3851 14.6602 16.5673 14.6364 16.7553 14.6364Z" fill="white"/>
</svg>
