<svg width="24" height="24" viewBox="0 0 24 24" fill="none" xmlns="http://www.w3.org/2000/svg">
<path d="M1.45752 17.2788V22.9931H22.4077V17.2788H1.45752Z" fill="white"/>
<path d="M11.7815 0.712402C9.93396 0.712402 8.09667 1.38602 6.63973 2.40437C5.18279 3.42271 3.99668 4.83406 4.00826 6.5787C4.02345 8.86754 3.96875 17.4593 3.96875 17.4593L6.25446 17.474C6.25446 17.474 6.30965 8.92566 6.29397 6.56352C6.29012 5.98266 6.86455 5.03602 7.94933 4.2778C9.03411 3.51959 10.5197 2.99812 11.7815 2.99812C13.0307 2.99812 14.5469 3.54073 15.6732 4.31129C16.7995 5.08184 17.4101 6.07704 17.4208 6.50727C17.471 8.53384 17.3978 17.8222 17.3978 17.8222L19.6833 17.841C19.6833 17.841 19.7614 8.69414 19.7058 6.45079C19.6637 4.74981 18.4379 3.43316 16.9638 2.42468C15.4898 1.4162 13.6415 0.712402 11.7815 0.712402Z" fill="white"/>
</svg>
