<svg width="24" height="24" viewBox="0 0 24 24" fill="none" xmlns="http://www.w3.org/2000/svg">
<path d="M3.06665 3.46689V5.46689V6.26689V17.7336C3.06665 18.0002 3.19998 18.1336 3.46665 18.1336C6.26665 18.1336 8.53332 18.6669 10.5333 19.7336C10.9333 19.8669 11.2 20.1336 11.6 20.4002V19.7336V19.3336V6.00023V5.06689C9.19998 3.60023 6.66665 3.06689 3.46665 3.06689C3.19998 3.06689 3.06665 3.20023 3.06665 3.46689Z" fill="white"/>
<path d="M20.9332 17.7336V6.26689V5.46689V3.46689C20.9332 3.20023 20.7999 3.06689 20.5332 3.06689C17.3332 3.06689 14.6666 3.73356 12.3999 5.20023V6.13356V19.4669V19.8669V20.5336C12.7999 20.2669 13.0666 20.1336 13.4666 19.8669C15.4666 18.8002 17.7332 18.2669 20.5332 18.2669C20.7999 18.1336 20.9332 17.8669 20.9332 17.7336Z" fill="white"/>
<path d="M3.06667 19.3335C2.4 19.3335 1.73333 18.8002 1.73333 18.0002V6.0002V5.2002H0.4C0.133333 5.2002 0 5.33353 0 5.60019V20.6669C0 20.9335 0.133333 21.0669 0.4 21.0669H10.2667C9.73333 20.6669 9.06667 20.4002 8.4 20.2669C6.8 19.6002 5.06667 19.3335 3.06667 19.3335Z" fill="white"/>
<path d="M23.6001 5.2002H22.2668V6.0002V18.0002C22.2668 18.6669 21.7334 19.3335 20.9334 19.3335C18.9334 19.3335 17.0668 19.6002 15.4668 20.1335C14.8001 20.4002 14.2668 20.6669 13.6001 20.9335H23.4668C23.7334 20.9335 23.8668 20.8002 23.8668 20.5335V5.60019C24.0001 5.33353 23.8668 5.2002 23.6001 5.2002Z" fill="white"/>
</svg>
