<svg width="24" height="24" viewBox="0 0 24 24" fill="none" xmlns="http://www.w3.org/2000/svg">
<path d="M7.60928 18.0469C7.76171 18.0477 7.91249 18.0785 8.05303 18.1375C8.19315 18.1956 8.32054 18.2805 8.42803 18.3875C8.44636 18.4057 8.46407 18.4245 8.48115 18.4438C8.49742 18.4631 8.51305 18.4829 8.52803 18.5032C8.54324 18.5225 8.55783 18.5423 8.57178 18.5626C8.58604 18.584 8.59959 18.6059 8.6124 18.6282C8.62561 18.6496 8.63812 18.6715 8.6499 18.6938C8.66112 18.7174 8.67155 18.7414 8.68115 18.7657C8.69021 18.7883 8.69854 18.8113 8.70615 18.8344C8.71428 18.8592 8.72158 18.8842 8.72803 18.9094C8.73504 18.9332 8.7413 18.9571 8.74678 18.9813C8.75176 19.0061 8.75593 19.0312 8.75927 19.0563C8.76224 19.0822 8.76432 19.1083 8.76553 19.1344C8.76738 19.1594 8.76842 19.1844 8.76865 19.2094C8.76842 19.2344 8.76738 19.2594 8.76553 19.2844C8.76432 19.3105 8.76224 19.3366 8.75927 19.3625C8.75593 19.3877 8.75176 19.4127 8.74678 19.4375C8.7413 19.4617 8.73504 19.4856 8.72803 19.5094C8.72158 19.5346 8.71428 19.5596 8.70615 19.5844C8.69854 19.6076 8.69021 19.6305 8.68115 19.6531C8.67155 19.6774 8.66112 19.7014 8.6499 19.725C8.63812 19.7473 8.62561 19.7692 8.6124 19.7906C8.59959 19.813 8.58604 19.8348 8.57178 19.8563C8.55783 19.8765 8.54324 19.8963 8.52803 19.9156C8.51305 19.9359 8.49742 19.9557 8.48115 19.975C8.46407 19.9943 8.44636 20.0131 8.42803 20.0313C8.32054 20.1383 8.19315 20.2232 8.05303 20.2813C7.91249 20.3403 7.76171 20.3711 7.60928 20.3719C7.45706 20.3721 7.30628 20.3423 7.16553 20.2844C7.02403 20.2258 6.89553 20.1397 6.7874 20.0313C6.67893 19.9231 6.5929 19.7946 6.53428 19.6531C6.47632 19.5124 6.44659 19.3616 6.44678 19.2094C6.44659 19.0572 6.47632 18.9064 6.53428 18.7656C6.5929 18.6241 6.67893 18.4956 6.7874 18.3875C6.89553 18.279 7.02403 18.193 7.16553 18.1344C7.30628 18.0764 7.45706 18.0467 7.60928 18.0469Z" fill="white"/>
<path d="M11.5844 20.8311C11.7366 20.8309 11.8874 20.8607 12.0281 20.9186C12.1696 20.9772 12.2981 21.0633 12.4063 21.1717C12.4246 21.1899 12.4423 21.2087 12.4594 21.228C12.4756 21.2462 12.4912 21.265 12.5063 21.2843C12.5215 21.3046 12.5361 21.3254 12.55 21.3467C12.5643 21.3682 12.5778 21.3901 12.5906 21.4124C12.6038 21.4338 12.6163 21.4557 12.6281 21.478C12.6393 21.5006 12.6497 21.5235 12.6594 21.5467C12.6685 21.5704 12.6768 21.5944 12.6844 21.6186C12.6925 21.6434 12.6998 21.6684 12.7063 21.6936C12.7133 21.7174 12.7195 21.7413 12.725 21.7655C12.73 21.7903 12.7342 21.8153 12.7375 21.8405C12.7404 21.8654 12.7425 21.8904 12.7438 21.9155C12.7457 21.9415 12.7467 21.9675 12.7469 21.9936C12.7466 22.0186 12.7456 22.0436 12.7438 22.0686C12.7425 22.0936 12.7404 22.1187 12.7375 22.1436C12.7342 22.1687 12.73 22.1937 12.725 22.2186C12.7196 22.2438 12.7133 22.2688 12.7063 22.2936C12.6997 22.3178 12.6924 22.3417 12.6844 22.3654C12.6768 22.3897 12.6685 22.4136 12.6594 22.4373C12.6497 22.4606 12.6393 22.4835 12.6281 22.5061C12.6164 22.5294 12.6039 22.5523 12.5906 22.5748C12.5778 22.5961 12.5642 22.6169 12.55 22.6373C12.5361 22.6586 12.5215 22.6795 12.5063 22.6998C12.4913 22.7201 12.4756 22.7399 12.4594 22.7592C12.4423 22.7785 12.4246 22.7973 12.4063 22.8154C12.2979 22.9228 12.1694 23.0077 12.0281 23.0654C11.8876 23.1245 11.7368 23.1553 11.5844 23.1561C11.432 23.1553 11.2812 23.1245 11.1406 23.0654C10.9994 23.0077 10.8709 22.9228 10.7625 22.8154C10.654 22.7073 10.568 22.5788 10.5094 22.4373C10.4514 22.2966 10.4217 22.1458 10.4219 21.9936C10.4213 21.8403 10.451 21.6884 10.5094 21.5467C10.5684 21.4063 10.6544 21.2789 10.7625 21.1717C10.8706 21.0632 10.9991 20.9772 11.1406 20.9186C11.2814 20.8606 11.4322 20.8309 11.5844 20.8311Z" fill="white"/>
<path d="M11.1562 17.5909C11.3084 17.5907 11.4592 17.6204 11.5999 17.6784C11.7414 17.737 11.8699 17.823 11.978 17.9315C11.9964 17.9496 12.0141 17.9684 12.0312 17.9877C12.0474 18.006 12.063 18.0248 12.078 18.044C12.0933 18.0643 12.1079 18.0852 12.1218 18.1065C12.1361 18.1279 12.1496 18.1498 12.1624 18.1721C12.1756 18.1936 12.1881 18.2155 12.1999 18.2378C12.2111 18.2603 12.2215 18.2833 12.2312 18.3065C12.2403 18.3302 12.2486 18.3542 12.2562 18.3784C12.2643 18.4031 12.2716 18.4281 12.278 18.4534C12.285 18.4771 12.2913 18.5011 12.2968 18.5252C12.3018 18.5501 12.3059 18.5751 12.3093 18.6002C12.3122 18.6252 12.3143 18.6502 12.3155 18.6752C12.3175 18.7012 12.3185 18.7273 12.3187 18.7534C12.3184 18.7784 12.3174 18.8034 12.3155 18.8284C12.3143 18.8534 12.3122 18.8784 12.3093 18.9033C12.3059 18.9285 12.3018 18.9535 12.2968 18.9783C12.2914 19.0035 12.2851 19.0285 12.278 19.0533C12.2715 19.0775 12.2642 19.1015 12.2562 19.1252C12.2486 19.1494 12.2403 19.1734 12.2312 19.1971C12.2215 19.2203 12.2111 19.2433 12.1999 19.2658C12.1882 19.2892 12.1757 19.3121 12.1624 19.3346C12.1495 19.3558 12.136 19.3767 12.1218 19.3971C12.1079 19.4184 12.0933 19.4392 12.078 19.4596C12.0631 19.4799 12.0474 19.4997 12.0312 19.5189C12.0141 19.5383 11.9964 19.557 11.978 19.5752C11.8696 19.6826 11.7411 19.7675 11.5999 19.8252C11.4594 19.8842 11.3086 19.915 11.1562 19.9158C11.0037 19.915 10.8529 19.8842 10.7124 19.8252C10.5712 19.7675 10.4427 19.6826 10.3343 19.5752C10.2258 19.4671 10.1398 19.3386 10.0812 19.1971C10.0232 19.0563 9.99347 18.9055 9.99366 18.7533C9.99306 18.6001 10.0228 18.4482 10.0812 18.3065C10.1401 18.1661 10.2262 18.0387 10.3343 17.9315C10.4424 17.823 10.5709 17.737 10.7124 17.6783C10.8532 17.6204 11.0039 17.5907 11.1562 17.5909Z" fill="white"/>
<path d="M13.9093 18.5064C14.0616 18.5062 14.2123 18.5359 14.3531 18.5939C14.4946 18.6525 14.6231 18.7386 14.7312 18.847C14.7495 18.8652 14.7673 18.884 14.7843 18.9033C14.8005 18.9215 14.8162 18.9403 14.8312 18.9595C14.8465 18.9799 14.8611 19.0007 14.875 19.022C14.8892 19.0435 14.9028 19.0654 14.9156 19.0877C14.9288 19.1091 14.9413 19.131 14.9531 19.1533C14.9642 19.1759 14.9747 19.1988 14.9843 19.222C14.9935 19.2457 15.0018 19.2697 15.0093 19.2939C15.0175 19.3187 15.0248 19.3437 15.0312 19.3689C15.0382 19.3927 15.0445 19.4166 15.05 19.4408C15.0549 19.4656 15.0591 19.4906 15.0625 19.5158C15.0654 19.5407 15.0674 19.5657 15.0687 19.5908C15.0706 19.6168 15.0717 19.6428 15.0718 19.6689C15.0716 19.6939 15.0706 19.7189 15.0687 19.7439C15.0674 19.7689 15.0654 19.7939 15.0625 19.8189C15.0591 19.844 15.0549 19.869 15.05 19.8939C15.0445 19.9191 15.0383 19.9441 15.0312 19.9689C15.0247 19.993 15.0174 20.017 15.0093 20.0407C15.0018 20.065 14.9935 20.0889 14.9843 20.1126C14.9747 20.1358 14.9642 20.1588 14.9531 20.1814C14.9414 20.2047 14.9289 20.2276 14.9156 20.2501C14.9027 20.2714 14.8892 20.2922 14.875 20.3126C14.8611 20.3339 14.8465 20.3547 14.8312 20.3751C14.8162 20.3954 14.8006 20.4152 14.7843 20.4345C14.7673 20.4538 14.7495 20.4726 14.7312 20.4907C14.6228 20.5981 14.4943 20.683 14.3531 20.7407C14.2125 20.7998 14.0618 20.8305 13.9093 20.8314C13.7569 20.8305 13.6061 20.7998 13.4656 20.7407C13.3244 20.683 13.1959 20.5981 13.0875 20.4907C12.979 20.3826 12.893 20.2541 12.8343 20.1126C12.7764 19.9718 12.7466 19.8211 12.7468 19.6689C12.7462 19.5156 12.776 19.3637 12.8343 19.222C12.8933 19.0816 12.9793 18.9542 13.0875 18.847C13.1956 18.7385 13.3241 18.6525 13.4656 18.5939C13.6063 18.5359 13.7571 18.5062 13.9093 18.5064Z" fill="white"/>
<path d="M15.1781 21.0562C15.3303 21.056 15.4811 21.0857 15.6219 21.1437C15.7634 21.2023 15.8919 21.2883 16 21.3968C16.0183 21.415 16.036 21.4337 16.0531 21.4531C16.0694 21.4723 16.085 21.4921 16.1 21.5124C16.1152 21.5318 16.1298 21.5516 16.1437 21.5718C16.158 21.5932 16.1716 21.6151 16.1844 21.6374C16.1976 21.6589 16.2101 21.6808 16.2219 21.7031C16.2331 21.7267 16.2435 21.7506 16.2531 21.7749C16.2622 21.7976 16.2705 21.8205 16.2781 21.8437C16.2863 21.8684 16.2936 21.8934 16.3 21.9187C16.307 21.9424 16.3133 21.9664 16.3188 21.9905C16.3237 22.0154 16.3279 22.0404 16.3312 22.0655C16.3342 22.0915 16.3363 22.1176 16.3375 22.1437C16.3393 22.1686 16.3404 22.1936 16.3407 22.2187C16.3404 22.2437 16.3393 22.2687 16.3375 22.2937C16.3363 22.3198 16.3342 22.3458 16.3312 22.3718C16.3279 22.3969 16.3237 22.4219 16.3188 22.4468C16.3133 22.4709 16.307 22.4949 16.3 22.5186C16.2936 22.5439 16.2863 22.5689 16.2781 22.5936C16.2705 22.6168 16.2622 22.6397 16.2531 22.6624C16.2435 22.6856 16.233 22.7086 16.2219 22.7311C16.2101 22.7545 16.1976 22.7774 16.1844 22.7999C16.1716 22.8222 16.158 22.8441 16.1437 22.8655C16.1298 22.8858 16.1152 22.9056 16.1 22.9249C16.085 22.9452 16.0694 22.965 16.0531 22.9843C16.036 23.0036 16.0183 23.0224 16 23.0405C15.8919 23.149 15.7634 23.235 15.6219 23.2937C15.4811 23.3516 15.3303 23.3813 15.1781 23.3812C15.0259 23.3813 14.8751 23.3516 14.7344 23.2937C14.5929 23.235 14.4644 23.149 14.3563 23.0405C14.2478 22.9324 14.1618 22.8039 14.1031 22.6624C14.0452 22.5217 14.0154 22.3709 14.0156 22.2187C14.0154 22.0664 14.0452 21.9157 14.1031 21.7749C14.1618 21.6334 14.2478 21.5049 14.3563 21.3968C14.4644 21.2883 14.5929 21.2023 14.7344 21.1437C14.8751 21.0857 15.0259 21.056 15.1781 21.0562Z" fill="white"/>
<path d="M8.3124 21.0284C8.46483 21.0292 8.61561 21.0599 8.75615 21.119C8.89627 21.177 9.02367 21.262 9.13115 21.369C9.14948 21.3871 9.1672 21.4059 9.18428 21.4252C9.20054 21.4445 9.21618 21.4643 9.23115 21.4846C9.24636 21.5039 9.26095 21.5237 9.2749 21.544C9.28917 21.5654 9.30272 21.5873 9.31553 21.6096C9.32874 21.6311 9.34124 21.653 9.35303 21.6752C9.36425 21.6988 9.37467 21.7228 9.38428 21.7471C9.39333 21.7698 9.40167 21.7927 9.40928 21.8159C9.41741 21.8406 9.4247 21.8656 9.43115 21.8908C9.43817 21.9146 9.44442 21.9386 9.4499 21.9627C9.45488 21.9876 9.45905 22.0126 9.4624 22.0377C9.46536 22.0637 9.46745 22.0897 9.46865 22.1158C9.4705 22.1408 9.47154 22.1658 9.47177 22.1908C9.47154 22.2159 9.4705 22.2409 9.46865 22.2658C9.46745 22.2919 9.46536 22.318 9.4624 22.344C9.45905 22.3691 9.45488 22.3941 9.4499 22.4189C9.44442 22.4431 9.43817 22.4671 9.43115 22.4908C9.4247 22.5161 9.41741 22.5411 9.40928 22.5658C9.40167 22.589 9.39333 22.6119 9.38428 22.6346C9.37467 22.6589 9.36425 22.6828 9.35303 22.7064C9.34124 22.7287 9.32874 22.7506 9.31553 22.7721C9.30272 22.7944 9.28917 22.8163 9.2749 22.8377C9.26095 22.8579 9.24636 22.8777 9.23115 22.8971C9.21618 22.9174 9.20054 22.9372 9.18428 22.9564C9.1672 22.9758 9.14948 22.9945 9.13115 23.0127C9.02367 23.1197 8.89627 23.2046 8.75615 23.2627C8.61561 23.3217 8.46483 23.3525 8.3124 23.3533C8.16018 23.3535 8.00941 23.3238 7.86865 23.2658C7.72716 23.2072 7.59865 23.1212 7.49053 23.0127C7.38205 22.9046 7.29603 22.7761 7.2374 22.6346C7.17945 22.4938 7.14972 22.343 7.1499 22.1908C7.14972 22.0386 7.17945 21.8878 7.2374 21.7471C7.29603 21.6056 7.38205 21.4771 7.49053 21.3689C7.59865 21.2605 7.72716 21.1745 7.86865 21.1158C8.00941 21.0579 8.16018 21.0282 8.3124 21.0284Z" fill="white"/>
<path d="M16.2345 16.6626C16.3867 16.6624 16.5375 16.6922 16.6782 16.7501C16.8197 16.8087 16.9482 16.8948 17.0564 17.0032C17.0747 17.0214 17.0924 17.0402 17.1095 17.0595C17.1257 17.0788 17.1414 17.0986 17.1564 17.1189C17.1716 17.1382 17.1861 17.158 17.2001 17.1783C17.2144 17.1997 17.2279 17.2216 17.2407 17.2439C17.2539 17.2653 17.2664 17.2872 17.2782 17.3095C17.2894 17.3331 17.2999 17.3571 17.3095 17.3814C17.3185 17.404 17.3269 17.427 17.3345 17.4501C17.3426 17.4749 17.3499 17.4999 17.3564 17.5251C17.3634 17.5489 17.3696 17.5728 17.3751 17.597C17.3801 17.6218 17.3842 17.6469 17.3876 17.672C17.3905 17.6979 17.3926 17.724 17.3938 17.7501C17.3957 17.7751 17.3968 17.8001 17.397 17.8251C17.3972 17.9773 17.3675 18.1281 17.3095 18.2689C17.2505 18.4092 17.1645 18.5366 17.0564 18.6439C16.9483 18.7523 16.8198 18.8384 16.6783 18.897C16.5375 18.9549 16.3867 18.9847 16.2345 18.9845C16.0823 18.9847 15.9315 18.9549 15.7908 18.897C15.6493 18.8384 15.5208 18.7523 15.4126 18.6439C15.3056 18.5364 15.2207 18.409 15.1626 18.2689C15.1036 18.1283 15.0728 17.9775 15.072 17.8251C15.0718 17.6729 15.1016 17.5221 15.1595 17.3814C15.2181 17.2399 15.3042 17.1114 15.4126 17.0032C15.5208 16.8948 15.6493 16.8087 15.7908 16.7501C15.9315 16.6921 16.0823 16.6624 16.2345 16.6626Z" fill="white"/>
<path d="M7.19678 0.299835C7.15481 0.300366 7.11418 0.307827 7.0749 0.324835L5.14678 1.15921C5.10661 1.17685 5.0721 1.20113 5.04366 1.23109C5.01521 1.26104 4.993 1.29636 4.97803 1.33421C4.96305 1.37206 4.9559 1.41165 4.95615 1.45296C4.95641 1.49427 4.96391 1.53762 4.98115 1.57796L6.7499 5.67483C6.73709 5.68803 6.72199 5.69905 6.70928 5.71233C6.59332 5.83353 6.47969 5.9592 6.37178 6.08733C6.26387 6.21547 6.16166 6.34608 6.0624 6.48108C5.96315 6.61609 5.868 6.75546 5.77803 6.89671C5.68806 7.03795 5.60328 7.18107 5.52178 7.32796C5.44028 7.47485 5.36308 7.62577 5.29053 7.77796C5.21798 7.93014 5.1501 8.08359 5.0874 8.24046C5.02471 8.39732 4.96805 8.55763 4.91553 8.71858C4.86301 8.87954 4.81462 9.04116 4.77178 9.20608C4.72894 9.37101 4.68918 9.53774 4.65615 9.70608C4.62313 9.87443 4.59685 10.0444 4.5749 10.2155C4.55948 10.3357 4.55035 10.4558 4.54365 10.578C4.53695 10.7001 4.53269 10.8243 4.52802 10.9467H4.2374C4.19661 10.9449 4.15552 10.9435 4.11553 10.9436C3.99555 10.9439 3.88003 10.9533 3.76865 10.9686C3.6944 10.9788 3.62338 10.9931 3.55303 11.0092C3.48268 11.0253 3.413 11.0432 3.34678 11.0655C3.28056 11.0878 3.21506 11.1128 3.15303 11.1405C3.09099 11.1681 3.03242 11.1984 2.9749 11.2311C2.91739 11.2637 2.86178 11.2972 2.80928 11.3342C2.75678 11.3712 2.70739 11.4117 2.65928 11.453C2.61117 11.4943 2.56509 11.5386 2.52178 11.5842C2.47847 11.6298 2.43794 11.6766 2.39991 11.7248C2.36187 11.7731 2.32655 11.8237 2.29366 11.8748C2.26076 11.926 2.2303 11.9777 2.20303 12.0311C2.17576 12.0845 2.15242 12.1384 2.13115 12.1936C2.10989 12.2488 2.09072 12.3054 2.07491 12.3623C2.0591 12.4193 2.04738 12.4764 2.03741 12.5342C2.02744 12.592 2.01921 12.6505 2.01553 12.7092C2.01185 12.7679 2.00979 12.8284 2.01241 12.8873C2.01502 12.9463 2.0223 13.0037 2.03116 13.0623C2.04001 13.121 2.05047 13.1793 2.06554 13.2373C2.08061 13.2953 2.10027 13.353 2.12179 13.4092C2.1433 13.4655 2.16856 13.5205 2.19679 13.5748C2.22501 13.6291 2.2562 13.6827 2.29054 13.7342C2.32487 13.7857 2.3625 13.8363 2.40303 13.8842C2.44357 13.9321 2.487 13.9773 2.53428 14.0217C2.58157 14.0661 2.63124 14.1072 2.68428 14.1467C2.73733 14.1862 2.79376 14.2242 2.85303 14.2592C2.91231 14.2942 2.97539 14.3288 3.04053 14.3592C3.10568 14.3897 3.17289 14.416 3.24366 14.4405C3.31443 14.4649 3.38883 14.4873 3.46553 14.5061C3.54224 14.5249 3.62126 14.5402 3.70303 14.553C3.77454 14.5641 3.84862 14.5725 3.92491 14.578C4.0012 14.5834 4.07971 14.5859 4.15928 14.5873L5.64053 23.6436H6.95928L5.98741 18.3842C5.94472 18.1688 5.9075 17.9564 5.88116 17.753C5.85482 17.5496 5.83935 17.3553 5.83428 17.1717C5.83176 17.0799 5.83088 16.991 5.83428 16.9061C5.83769 16.8212 5.84536 16.7403 5.85616 16.6623C5.86696 16.5844 5.88118 16.5106 5.89991 16.4405C5.91864 16.3703 5.94189 16.3037 5.96866 16.2436C5.99543 16.1834 6.02653 16.1275 6.06241 16.078C6.09829 16.0284 6.13894 15.9852 6.18429 15.9467C6.22963 15.9083 6.27867 15.8761 6.33429 15.8498C6.38991 15.8236 6.45211 15.8033 6.51866 15.7905C6.58521 15.7776 6.65633 15.7703 6.73429 15.7717C6.81224 15.7731 6.89704 15.7831 6.98741 15.7998C7.03786 15.8092 7.09668 15.8289 7.15616 15.8498C7.21564 15.8708 7.27578 15.8928 7.33429 15.9123C7.38059 15.9278 7.42439 15.9374 7.46866 15.9498C7.51293 15.9623 7.55768 15.9777 7.60929 15.9998C7.83115 16.0816 8.04254 16.1562 8.24366 16.2248C8.44478 16.2935 8.63562 16.3562 8.82179 16.4123C9.00795 16.4685 9.18627 16.5177 9.36241 16.5623C9.53855 16.607 9.71251 16.6471 9.88429 16.6811C10.0561 16.7151 10.2274 16.7442 10.3999 16.7686C10.5725 16.793 10.7462 16.8127 10.9249 16.828C11.1304 16.8456 11.3632 16.846 11.5843 16.853C11.7027 16.8567 11.8127 16.8645 11.9374 16.8655C11.9849 16.8658 12.0233 16.8717 12.0718 16.8717C12.1485 16.8717 12.2101 16.8632 12.2843 16.8623L11.303 14.5905H12.0718H12.8937L13.8218 16.7436C13.9313 16.7272 14.0438 16.7171 14.153 16.6967C14.1881 16.6901 14.2242 16.6881 14.2593 16.681C14.3279 16.6674 14.4026 16.6432 14.4718 16.6279C14.6102 16.5974 14.7467 16.5661 14.8874 16.531C15.0281 16.496 15.1728 16.4572 15.3218 16.4123C15.5079 16.3561 15.6988 16.2934 15.8999 16.2248C16.101 16.1561 16.3124 16.0815 16.5343 15.9998C16.6511 15.9496 16.7619 15.908 16.8655 15.8748C16.9692 15.8415 17.0658 15.8165 17.1562 15.7998C17.2465 15.783 17.3313 15.773 17.4093 15.7716C17.4872 15.7703 17.5584 15.7776 17.6249 15.7904C17.6914 15.8032 17.7537 15.8235 17.8093 15.8498C17.8649 15.876 17.9139 15.9082 17.9593 15.9466C18.0046 15.9851 18.0453 16.0283 18.0812 16.0779C18.117 16.1275 18.1481 16.1834 18.1749 16.2435C18.2017 16.3037 18.2226 16.3702 18.2405 16.4404C18.2585 16.5106 18.2735 16.5843 18.2843 16.6623C18.2952 16.7402 18.302 16.8211 18.3061 16.906C18.3103 16.9909 18.3117 17.0799 18.3093 17.1716C18.3044 17.3552 18.2888 17.5495 18.2625 17.7529C18.2361 17.9563 18.1989 18.1688 18.1562 18.3841L17.6312 21.2216L17.1843 23.6435H18.5031L19.9812 14.5873C20.0614 14.5859 20.1387 14.5833 20.2156 14.5779C20.2924 14.5725 20.3687 14.5642 20.4406 14.5529C20.5222 14.5401 20.6021 14.5248 20.6781 14.506C20.7541 14.4872 20.8263 14.4648 20.8968 14.4404C20.9674 14.4159 21.0347 14.3896 21.1 14.3591C21.1652 14.3287 21.2283 14.2941 21.2875 14.2591C21.3466 14.2242 21.4031 14.1862 21.4562 14.1466C21.5093 14.1071 21.5589 14.066 21.6062 14.0216C21.6535 13.9773 21.6969 13.932 21.7375 13.8841C21.778 13.8362 21.8156 13.7857 21.85 13.7341C21.8843 13.6826 21.9155 13.6291 21.9437 13.5748C21.9719 13.5205 21.9972 13.4654 22.0187 13.4091C22.0402 13.3529 22.0599 13.2953 22.0749 13.2373C22.09 13.1793 22.1005 13.1209 22.1093 13.0623C22.1181 13.0036 22.1254 12.9462 22.1281 12.8873C22.1306 12.8283 22.1286 12.7678 22.1249 12.7091C22.1212 12.6505 22.113 12.592 22.103 12.5341C22.0931 12.4763 22.0813 12.4192 22.0655 12.3623C22.0496 12.3053 22.0305 12.2487 22.0092 12.1935C21.9879 12.1383 21.9645 12.0845 21.9374 12.031C21.9102 11.9776 21.8797 11.9259 21.8467 11.8748C21.8138 11.8236 21.7784 11.773 21.7405 11.7248C21.7025 11.6765 21.6612 11.6297 21.6186 11.5841C21.576 11.5386 21.5323 11.4942 21.4842 11.4529C21.4362 11.4116 21.3844 11.3711 21.3311 11.3341C21.2778 11.2972 21.2229 11.2637 21.1655 11.231C21.1081 11.1984 21.0486 11.1681 20.9874 11.1404C20.9261 11.1127 20.8629 11.0877 20.7967 11.0654C20.7306 11.0431 20.6609 11.0252 20.5905 11.0091C20.5201 10.9931 20.4491 10.9787 20.3749 10.9685C20.3006 10.9583 20.225 10.9505 20.1467 10.9466C20.0685 10.9428 19.9877 10.943 19.9061 10.9466H19.6155C19.6108 10.8242 19.6065 10.7 19.5998 10.5779C19.5931 10.4558 19.584 10.3356 19.5686 10.2154C19.5466 10.0443 19.5203 9.87436 19.4873 9.70602C19.4543 9.53768 19.4145 9.37095 19.3717 9.20602C19.3288 9.04109 19.2804 8.87948 19.2279 8.71852C19.1754 8.55757 19.1187 8.39727 19.0561 8.2404C18.9934 8.08353 18.9255 7.93008 18.8529 7.7779C18.7804 7.62571 18.7032 7.47479 18.6217 7.3279C18.5403 7.18107 18.4555 7.03795 18.3655 6.89671C18.2756 6.75547 18.1804 6.61609 18.0812 6.48108C17.9819 6.34608 17.8797 6.21547 17.7718 6.08733C17.6639 5.9592 17.5502 5.83353 17.4343 5.71233C17.3183 5.59114 17.1989 5.47285 17.0749 5.35921C16.9509 5.24557 16.8222 5.13656 16.6905 5.03108C16.5589 4.92561 16.4234 4.82494 16.2843 4.72796C16.1452 4.63098 16.0024 4.53768 15.8562 4.44983C15.7099 4.36199 15.5624 4.28015 15.4124 4.20296C15.2624 4.12577 15.1099 4.05322 14.9562 3.98733C14.8024 3.92145 14.6475 3.86066 14.4905 3.80608C14.3336 3.75151 14.1746 3.70313 14.0155 3.65921C13.8564 3.61529 13.6953 3.57633 13.5343 3.54359C13.3732 3.51084 13.2122 3.4843 13.0499 3.46233C12.8876 3.44037 12.7255 3.42325 12.5624 3.41233C12.3993 3.40142 12.2352 3.3967 12.0718 3.3967C11.9084 3.3967 11.7443 3.40141 11.5812 3.41233C11.418 3.42325 11.256 3.44037 11.0937 3.46233C10.9313 3.4843 10.7703 3.51084 10.6093 3.54358C10.4482 3.57633 10.2871 3.61529 10.128 3.65921C9.96893 3.70313 9.80998 3.75151 9.65303 3.80609C9.49608 3.86066 9.34115 3.92145 9.1874 3.98734C9.13729 4.00881 9.09029 4.03969 9.04053 4.06234L7.49678 0.49046C7.47985 0.451924 7.45464 0.416009 7.4249 0.387335C7.39517 0.358661 7.3609 0.33723 7.32178 0.32171C7.28208 0.305701 7.23875 0.299304 7.19678 0.299835ZM7.03741 1.04046L8.46866 4.35608L8.55615 4.55608L8.6249 4.71546L11.3187 10.9467H9.72803L7.41553 5.59983L7.3749 5.50296L7.2499 5.21546L5.69678 1.61859L7.03741 1.04046ZM4.20928 11.5873H4.21554H9.30616H9.65616H10.0062H11.5937H11.9437H12.0718H12.2937H19.9249H19.9344C20.0618 11.5817 20.1825 11.5861 20.2937 11.5998C20.3493 11.6067 20.4016 11.6163 20.4531 11.628C20.5046 11.6396 20.5555 11.6534 20.6031 11.6686C20.6984 11.699 20.7867 11.737 20.8656 11.7811C20.9445 11.8252 21.0141 11.8754 21.0781 11.9311C21.1421 11.9867 21.1979 12.0484 21.2469 12.1123C21.2958 12.1762 21.338 12.2423 21.3719 12.3123C21.3871 12.3439 21.396 12.3761 21.4031 12.4092C21.4103 12.4423 21.4157 12.4763 21.425 12.5092H12.6905H12.3437L11.9937 12.5123H10.403H10.0562H9.70615H2.71865C2.72797 12.4789 2.73344 12.446 2.74053 12.4123C2.74762 12.3787 2.75631 12.3444 2.77178 12.3123C2.80561 12.2423 2.84781 12.1762 2.89678 12.1123C2.94575 12.0484 3.00149 11.9867 3.06553 11.9311C3.12957 11.8754 3.20223 11.8252 3.28115 11.7811C3.36008 11.737 3.44528 11.699 3.54053 11.6686C3.58816 11.6534 3.639 11.6396 3.69053 11.628C3.74206 11.6163 3.79429 11.6067 3.8499 11.5998C3.96114 11.5861 4.08182 11.5817 4.20928 11.5873ZM21.428 13.1467C21.4245 13.1567 21.4288 13.1681 21.4248 13.178C21.3988 13.2459 21.3643 13.3121 21.3217 13.3748C21.2791 13.4376 21.2283 13.4969 21.1686 13.553C21.1088 13.609 21.0395 13.6612 20.9592 13.7092C20.9191 13.7332 20.877 13.7564 20.8311 13.778C20.7852 13.7995 20.7356 13.8193 20.6842 13.8373C20.6328 13.8553 20.5789 13.8701 20.5217 13.8842C20.4645 13.8983 20.4042 13.9117 20.3405 13.9217C20.2768 13.9317 20.2107 13.9383 20.1405 13.9436C20.0702 13.9489 19.9956 13.953 19.9186 13.953H13.3155H12.9655H12.6187H12.0718H11.028H10.678H10.328H4.2249C4.14791 13.953 4.07329 13.9489 4.00303 13.9436C3.93277 13.9383 3.86687 13.9317 3.80303 13.9217C3.73919 13.9117 3.67964 13.8983 3.62178 13.8842C3.56392 13.8701 3.50776 13.8553 3.45615 13.8373C3.40455 13.8193 3.35506 13.7995 3.30928 13.778C3.2635 13.7564 3.22143 13.7332 3.18115 13.7092C3.1006 13.6612 3.03152 13.609 2.97178 13.553C2.91204 13.4969 2.86058 13.4376 2.81866 13.3748C2.77673 13.3121 2.74433 13.2459 2.71866 13.178C2.71566 13.17 2.7183 13.1609 2.71554 13.153L9.98428 13.1498H10.3312H10.6812H12.2718H12.6187H12.9687L21.428 13.1467Z" fill="white"/>
</svg>
