<svg width="24" height="24" viewBox="0 0 24 24" fill="none" xmlns="http://www.w3.org/2000/svg">
<g clip-path="url(#clip0_324_56378)">
<path d="M7.66602 17.667V19.6669H8.99922H14.9987H16.3319V17.667H7.66602Z" fill="white"/>
<path d="M10.9991 14.6673C10.9991 14.483 10.8501 14.334 10.6658 14.334C10.5184 14.334 10.3975 14.4309 10.3535 14.5632L10.3497 14.562L9.75906 16.3339H7.99938C7.81506 16.3339 7.66602 16.4829 7.66602 16.6673C7.66602 16.8516 7.81506 17.0006 7.99938 17.0006H10.2395L10.9821 14.7729L10.978 14.7717C10.9893 14.7384 10.9991 14.7045 10.9991 14.6673Z" fill="white"/>
<path d="M6.66626 12.168C7.49469 12.168 8.16626 11.4964 8.16626 10.668C8.16626 9.83954 7.49469 9.16797 6.66626 9.16797C5.83783 9.16797 5.16626 9.83954 5.16626 10.668C5.16626 11.4964 5.83783 12.168 6.66626 12.168Z" fill="white"/>
<path d="M8.66592 14.3342H5.79456L4.95384 12.0343L4.94928 12.0362C4.82184 11.6306 4.44744 11.3345 3.99984 11.3345C3.8388 11.3345 3.68904 11.376 3.5544 11.4434L3.55272 11.4398C1.26168 12.5851 0 15.1522 0 18.667C0 19.2194 0.4476 19.667 1.00008 19.667H3.99984V23.0002C3.99984 23.5524 4.44744 24 4.99992 24C5.55216 24 5.99976 23.5524 5.99976 23.0002V18.667C5.99976 18.1147 5.55216 17.6671 4.99992 17.6671H2.04216C2.1636 16.2298 2.58792 14.6794 3.71304 13.7179L4.73664 15.2988L4.73904 15.2976C4.84872 15.516 5.07216 15.6674 5.33304 15.6674H8.66616C9.03432 15.6674 9.33264 15.3689 9.33264 15.0007C9.33264 14.6326 9.03408 14.3342 8.66592 14.3342Z" fill="white"/>
<path d="M15.9988 16.3339H14.2391L13.6485 14.562L13.6446 14.5632C13.6005 14.4312 13.4795 14.334 13.3324 14.334C13.1481 14.334 12.999 14.483 12.999 14.6673C12.999 14.7045 13.0089 14.7384 13.0199 14.7715L13.0158 14.7727L13.7584 17.0004H15.9985C16.1829 17.0004 16.3319 16.8511 16.3319 16.667C16.3319 16.4829 16.1829 16.3339 15.9988 16.3339Z" fill="white"/>
<path d="M17.3318 12.168C18.1602 12.168 18.8318 11.4964 18.8318 10.668C18.8318 9.83954 18.1602 9.16797 17.3318 9.16797C16.5034 9.16797 15.8318 9.83954 15.8318 10.668C15.8318 11.4964 16.5034 12.168 17.3318 12.168Z" fill="white"/>
<path d="M20.4457 11.4398L20.444 11.4434C20.3094 11.376 20.1596 11.3345 19.9986 11.3345C19.551 11.3345 19.1766 11.6306 19.0491 12.0362L19.0446 12.0343L18.2039 14.3342H15.3323C14.9641 14.3342 14.6658 14.6328 14.6658 15.0007C14.6658 15.3689 14.9643 15.6674 15.3323 15.6674H18.6654C18.9263 15.6674 19.1497 15.516 19.2594 15.2976L19.2618 15.2988L20.2854 13.7179C21.4105 14.6794 21.8348 16.2298 21.9563 17.6671H18.9985C18.4463 17.6671 17.9987 18.1147 17.9987 18.667V23.0002C17.9987 23.5524 18.4463 24 18.9985 24C19.551 24 19.9986 23.5524 19.9986 23.0002V19.667H22.9986C23.5508 19.667 23.9984 19.2194 23.9984 18.667C23.9982 15.1522 22.7365 12.5851 20.4457 11.4398Z" fill="white"/>
<path d="M11.999 0L0 5.844V8.82552L11.999 2.99976L23.9981 8.82552V5.844L11.999 0Z" fill="white"/>
</g>
<defs>
<clipPath id="clip0_324_56378">
<rect width="24" height="24" fill="white"/>
</clipPath>
</defs>
</svg>
