<svg width="24" height="24" viewBox="0 0 24 24" fill="none" xmlns="http://www.w3.org/2000/svg">
<path fill-rule="evenodd" clip-rule="evenodd" d="M2 4C2 2.89543 2.89543 2 4 2H12C13.1046 2 14 2.89543 14 4V12C16.2092 12 18 13.7908 18 16V19C18 19.5523 18.4477 20 19 20C19.5523 20 20 19.5523 20 19V11.8293C19.6872 11.9398 19.3507 12 19 12C17.3432 12 16 10.6568 16 9C16 7.4519 17.1726 6.1777 18.678 6.01705L16 2H18L22 8V19C22 20.6568 20.6568 22 19 22C17.3432 22 16 20.6568 16 19V16C16 14.8954 15.1046 14 14 14V22H2V4ZM4 4H12V10H4V4ZM20 9C20 8.4477 19.5523 8 19 8C18.4477 8 18 8.4477 18 9C18 9.5523 18.4477 10 19 10C19.5523 10 20 9.5523 20 9Z" fill="white"/>
</svg>
