<svg width="24" height="24" viewBox="0 0 24 24" fill="none" xmlns="http://www.w3.org/2000/svg">
<path d="M3.29286 19.6735L2.30444 14.7134L4.10157 13.725V5.7278C4.10157 4.73938 4.91028 3.93068 5.89869 3.93068H18.4786C19.467 3.93068 20.2757 4.73938 20.2757 5.7278V13.725L22.0728 14.7134L21.0664 19.7094C19.6647 18.7749 18.4786 18.3077 17.4902 18.3077C15.9446 18.3077 14.1655 18.9007 12.1886 20.1048C10.2837 18.9007 8.50453 18.3077 6.88711 18.3077C5.88072 18.3077 4.67665 18.757 3.29286 19.6735ZM18.4786 12.7546V6.62636C18.4786 6.12317 18.0832 5.7278 17.58 5.7278H6.79726C6.29406 5.7278 5.89869 6.12317 5.89869 6.62636V12.7546L12.1886 9.32205L18.4786 12.7546ZM8.59438 0.336426H15.7829C16.2861 0.336426 16.6814 0.731793 16.6814 1.23499V3.03211H7.69582V1.23499C7.69582 0.731793 8.09119 0.336426 8.59438 0.336426ZM17.58 20.1048C18.2809 20.1048 18.8919 20.3025 19.5928 20.6799C19.7186 20.7338 19.8444 20.8057 20.0061 20.8955C20.2038 21.0213 20.2937 21.0752 20.3835 21.1292C21.354 21.6683 20.707 23.3756 19.485 22.6747C19.4131 22.6388 19.2873 22.5669 19.1076 22.459C18.9638 22.3692 18.856 22.3153 18.7481 22.2614C18.2809 22.0098 17.9394 21.9019 17.58 21.9019C15.9626 21.9019 14.3452 22.4411 12.6918 23.5553L12.1886 23.8788L11.6854 23.5553C10.0321 22.4411 8.41467 21.9019 6.79726 21.9019C6.56363 21.9019 6.33 21.9558 6.02449 22.0996C5.77289 22.2074 5.53927 22.3512 4.94622 22.6927C3.7062 23.3756 3.07721 21.6683 4.06563 21.1112C4.64071 20.7877 4.96419 20.608 5.2697 20.4642C5.79087 20.2306 6.27609 20.1048 6.79726 20.1048C8.61235 20.1048 10.4095 20.6619 12.1886 21.7402C13.9678 20.6619 15.7649 20.1048 17.58 20.1048Z" fill="white"/>
</svg>
