<svg width="24" height="24" viewBox="0 0 24 24" fill="none" xmlns="http://www.w3.org/2000/svg">
<path fill-rule="evenodd" clip-rule="evenodd" d="M4.85061 6.14457C3.15867 6.65217 2 8.20947 2 9.97592V16.6557C2 17.3256 2.64573 17.8061 3.28734 17.6136L21.2874 12.2136C21.7103 12.0867 22 11.6974 22 11.2557V3.68784C22 2.34811 20.7085 1.38722 19.4253 1.77218L4.85061 6.14457ZM16 9.71162L20 8.51162V5.03177C20 4.36193 19.3543 3.88148 18.7127 4.07397L16 4.88776V9.71162ZM10 6.68807L14 5.48807V12.3119L10 13.5119V6.68807ZM4.71265 8.27407L8.00001 7.28787V12.1117L4 13.3117V9.23187C4 8.79027 4.28966 8.40097 4.71265 8.27407Z" fill="white"/>
<path d="M21.9578 15.3127C22.1165 15.8417 21.8164 16.3992 21.2874 16.5579L3.28736 21.9578C2.75837 22.1165 2.20089 21.8163 2.04219 21.2873C1.8835 20.7583 2.18368 20.2008 2.71268 20.0421L6.23043 18.9868C6.15483 18.9955 6.07793 19 6.00003 19C5.37528 19 4.81743 18.7135 4.45067 18.2648L7.98983 17.203C7.91998 17.8959 7.49653 18.4843 6.90268 18.7852L18.2308 15.3868C18.1551 15.3955 18.0781 15.4 18 15.4C17.3753 15.4 16.8174 15.1135 16.4507 14.6648L19.9898 13.603C19.92 14.296 19.4964 14.8845 18.9024 15.1853L20.7127 14.6422C21.2417 14.4835 21.7991 14.7837 21.9578 15.3127Z" fill="white"/>
</svg>
