<svg width="24" height="24" viewBox="0 0 24 24" fill="none" xmlns="http://www.w3.org/2000/svg">
<path d="M2 5C2 4.44771 2.44771 4 3 4H7C7.5523 4 8 4.44771 8 5V6H4V7H8V8H4V9H8V10H4V11H8V12H4V13H8V14H4V15H8V16H4V17H8V19C8 19.5523 7.5523 20 7 20H3C2.44771 20 2 19.5523 2 19V5Z" fill="white"/>
<path fill-rule="evenodd" clip-rule="evenodd" d="M20.4783 4.12229C20.9632 4.38675 21.1418 4.99419 20.8774 5.47905L17.1391 12.3326L18.1201 14.1313C18.3984 14.0461 18.6939 14.0001 19 14.0001C20.6568 14.0001 22 15.3433 22 17.0002C22 18.657 20.6568 20.0002 19 20.0002C17.3432 20.0002 16 18.657 16 17.0002C16 16.3861 16.1845 15.8151 16.5011 15.3396L16 14.4209L15.4989 15.3396C15.8155 15.8151 16 16.3861 16 17.0002C16 18.657 14.6568 20.0002 13 20.0002C11.3432 20.0002 10 18.657 10 17.0002C10 15.3433 11.3432 14.0001 13 14.0001C13.3061 14.0001 13.6016 14.046 13.8799 14.1313L14.8609 12.3326L11.1226 5.47905C10.8581 4.99419 11.0368 4.38676 11.5217 4.12229C12.0065 3.85783 12.6139 4.03649 12.8784 4.52134L16 10.2443L19.1216 4.52134C19.386 4.03649 19.9935 3.85783 20.4783 4.12229ZM13 18C13.5523 18 14 17.5523 14 17C14 16.4477 13.5523 16 13 16C12.4477 16 12 16.4477 12 17C12 17.5523 12.4477 18 13 18ZM19 18C18.4477 18 18 17.5523 18 17C18 16.4477 18.4477 16 19 16C19.5523 16 20 16.4477 20 17C20 17.5523 19.5523 18 19 18Z" fill="white"/>
</svg>
