<svg width="24" height="24" viewBox="0 0 24 24" fill="none" xmlns="http://www.w3.org/2000/svg">
<path d="M8.22472 8.02786C8.06966 7.79876 7.06517 8.83282 6 7.31579C7.98202 8.65944 8.84494 4.85387 10.6517 6.9257C11.3663 7.74303 9.91011 9.79876 8.22472 8.02786ZM12.5629 4.04334C12.3135 3.90093 13.4393 2.97833 11.7876 2C13.2506 3.82043 9.10719 4.613 11.3629 6.27245C12.2528 6.92879 14.491 5.59133 12.5629 4.04334ZM15.7753 8.02786C15.9303 7.79876 16.9348 8.83282 18 7.31579C16.018 8.65944 15.1551 4.85387 13.3483 6.9257C12.6337 7.74303 14.0899 9.79876 15.7753 8.02786ZM12 7.51084C11.1236 11.8142 9.30337 14.9721 7.41573 17.1393C8.22472 16.8916 9.10112 16.2724 9.94382 15.7771C9.4382 16.8916 8.89888 17.8824 8.35955 18.8731C8.62921 18.7492 9.70787 17.7585 11.0562 16.2724C11.2584 18.3158 11.5955 20.6068 12 22C12.4045 20.6068 12.7416 18.3158 12.9438 16.2724C14.2921 17.7585 15.3708 18.7492 15.6404 18.8731C15.1011 17.8824 14.5618 16.8916 14.0562 15.7771C14.8989 16.2724 15.7753 16.8916 16.5843 17.1393C14.6966 14.9721 12.8764 11.8142 12 7.51084Z" fill="white"/>
</svg>
