<svg width="24" height="24" viewBox="0 0 24 24" fill="none" xmlns="http://www.w3.org/2000/svg">
<g clip-path="url(#clip0_324_56399)">
<path d="M7.79903 17.102L6.49487 19.3242L17.7952 19.3157L16.4708 17.0962" fill="white"/>
<path fill-rule="evenodd" clip-rule="evenodd" d="M8.41156 4.23779C7.67721 4.23779 6.97287 4.52954 6.4536 5.04881C5.93433 5.56808 5.64258 6.27243 5.64258 7.00678V15.0514C5.64258 16.2458 6.61088 17.2141 7.8053 17.2141H16.4562C17.6506 17.2141 18.6189 16.2458 18.6189 15.0514V7.00678C18.6189 6.27243 18.3271 5.56808 17.8079 5.04881C17.2886 4.52954 16.5843 4.23779 15.8499 4.23779H8.41156ZM7.8053 6.40051H16.4562V10.726H7.8053V6.40051ZM9.96802 13.97C9.96802 14.5673 9.48389 15.0514 8.88666 15.0514C8.28948 15.0514 7.8053 14.5673 7.8053 13.97C7.8053 13.3728 8.28948 12.8887 8.88666 12.8887C9.48389 12.8887 9.96802 13.3728 9.96802 13.97ZM16.4562 13.97C16.4562 14.5673 15.972 15.0514 15.3748 15.0514C14.7776 15.0514 14.2935 14.5673 14.2935 13.97C14.2935 13.3728 14.7776 12.8887 15.3748 12.8887C15.972 12.8887 16.4562 13.3728 16.4562 13.97Z" fill="white"/>
<path d="M12.044 22.5724C17.8794 22.5724 22.61 17.8418 22.61 12.0064C22.61 6.17098 17.8794 1.44043 12.044 1.44043C6.20858 1.44043 1.47803 6.17098 1.47803 12.0064C1.47803 17.8418 6.20858 22.5724 12.044 22.5724Z" stroke="white"/>
</g>
<defs>
<clipPath id="clip0_324_56399">
<rect width="24" height="24" fill="white"/>
</clipPath>
</defs>
</svg>
