<svg width="24" height="24" viewBox="0 0 24 24" fill="none" xmlns="http://www.w3.org/2000/svg">
<g clip-path="url(#clip0_324_56414)">
<mask id="mask0_324_56414" style="mask-type:luminance" maskUnits="userSpaceOnUse" x="0" y="0" width="24" height="24">
<path d="M24 0H0V24H24V0Z" fill="white"/>
</mask>
<g mask="url(#mask0_324_56414)">
<path d="M22.309 9.11037H19.9005V8.72408L15.2741 4.09866H14.8877V1.69064L13.1967 0H10.8033L9.11227 1.69064V4.09866H8.7259L4.09952 8.72408V9.11037H1.69099L0 10.801V13.194L1.69099 14.8846H4.09952V15.2709L8.7259 19.8963H9.11227V22.3094L10.8033 24H13.1967L14.8877 22.3094V19.8963H15.2741L19.9005 15.2709V14.8846H22.309L24 13.194V10.801L22.309 9.11037ZM3.83358 12.3763L3.2766 12.9331H2.49885L1.95191 12.3863V11.6087L2.49885 11.0619H3.2766L3.83358 11.6187V12.3763ZM11.0642 2.49833L11.6111 1.95151H12.3889L12.9358 2.49833V3.27592L12.3788 3.83278H11.6161L11.0592 3.27592V2.49833H11.0642ZM12.9408 21.5017L12.3939 22.0485H11.6161L11.0692 21.5017V20.7241L11.6262 20.1672H12.3889L12.9458 20.7241V21.5017H12.9408ZM13.4978 12.6171L12.6247 13.49H11.3853L10.5122 12.6171V11.3779L11.3853 10.505H12.6247L13.4978 11.3779V12.6171ZM22.0531 12.3863L21.5062 12.9331H20.7284L20.1714 12.3763V11.6187L20.7284 11.0619H21.5062L22.0531 11.6087V12.3863Z" fill="white"/>
</g>
</g>
<defs>
<clipPath id="clip0_324_56414">
<rect width="24" height="24" fill="white"/>
</clipPath>
</defs>
</svg>
