<svg width="24" height="24" viewBox="0 0 24 24" fill="none" xmlns="http://www.w3.org/2000/svg">
<path d="M4 0C2.89543 0 2 0.89543 2 2V6C2 7.10455 2.89543 8 4 8H9C9.5523 8 10 7.5523 10 7V6H20.5858C20.851 6 21.1054 5.89465 21.2929 5.7071L22 5H14V4H22L21.2764 2.55278C21.107 2.214 20.7608 2 20.382 2H10V1C10 0.447716 9.5523 0 9 0H4ZM6 2H4V6H6V2Z" fill="white"/>
<path d="M16.5858 9.5858C16.2107 9.2107 15.702 9 15.1715 9H8.82845C8.298 9 7.7893 9.2107 7.4142 9.5858L7.3917 9.6083C7.1354 9.8646 6.95355 10.1857 6.86565 10.5374L6 14H5C4.44771 14 4 14.4477 4 15C4 15.5523 4.44771 16 5 16H6V21C6 21.5523 6.4477 22 7 22C7.5523 22 8 21.5523 8 21V20H16V21C16 21.5523 16.4477 22 17 22C17.5523 22 18 21.5523 18 21V16H19C19.5523 16 20 15.5523 20 15C20 14.4477 19.5523 14 19 14H18L17.1343 10.5374C17.0464 10.1857 16.8646 9.8646 16.6083 9.6083L16.5858 9.5858ZM15.194 11.0225L15.1716 11L8.82845 11L8.80595 11.0225L8.0099 14.2066C8.94675 14.278 10.2767 14.3438 12 14.3438C13.7233 14.3438 15.0532 14.278 15.9901 14.2066L15.194 11.0225ZM9 16C8.4477 16 8 16.4477 8 17C8 17.5523 8.4477 18 9 18C9.5523 18 10 17.5523 10 17C10 16.4477 9.5523 16 9 16ZM15 16C14.4477 16 14 16.4477 14 17C14 17.5523 14.4477 18 15 18C15.5523 18 16 17.5523 16 17C16 16.4477 15.5523 16 15 16Z" fill="white"/>
</svg>
