<svg width="24" height="24" viewBox="0 0 24 24" fill="none" xmlns="http://www.w3.org/2000/svg">
<path fill-rule="evenodd" clip-rule="evenodd" d="M6.12598 0.919922C4.92377 0.919922 3.95508 1.79282 3.95508 2.87695V21.3193C3.95508 22.4035 4.92377 23.2764 6.12598 23.2764H18.5244C19.7266 23.2764 20.6953 22.4035 20.6953 21.3193V2.87695C20.6953 1.79282 19.7266 0.919922 18.5244 0.919922H6.12598ZM6.97559 3.60059H10.4443C10.9103 3.60059 11.2852 3.9754 11.2852 4.44141V7.64648C11.2852 8.1125 10.9103 8.4873 10.4443 8.4873H6.97559C6.50957 8.4873 6.13477 8.1125 6.13477 7.64648V4.44141C6.13477 3.9754 6.50957 3.60059 6.97559 3.60059ZM6.90527 10.6143H18.3281C18.7941 10.6143 19.1689 10.9891 19.1689 11.4551V11.9912C19.1689 12.4572 18.7941 12.835 18.3281 12.835H6.90527C6.43926 12.835 6.06445 12.4572 6.06445 11.9912V11.4551C6.06445 10.9891 6.43926 10.6143 6.90527 10.6143ZM6.94629 14.5576H18.3662C18.8322 14.5576 19.21 14.9324 19.21 15.3984V15.9346C19.21 16.4006 18.8322 16.7783 18.3662 16.7783H6.94629C6.48028 16.7783 6.10547 16.4006 6.10547 15.9346V15.3984C6.10547 14.9324 6.48028 14.5576 6.94629 14.5576ZM6.92871 18.6533H18.3486C18.8146 18.6533 19.1895 19.0281 19.1895 19.4941V20.0303C19.1895 20.4963 18.8146 20.8711 18.3486 20.8711H6.92871C6.4627 20.8711 6.08789 20.4963 6.08789 20.0303V19.4941C6.08789 19.0281 6.4627 18.6533 6.92871 18.6533Z" fill="white"/>
</svg>
