<svg width="24" height="24" viewBox="0 0 24 24" fill="none" xmlns="http://www.w3.org/2000/svg">
<g clip-path="url(#clip0_324_56428)">
<path d="M4.80009 1.84C5.13465 0.55744 6.44553 -0.21104 7.72809 0.12336C9.01065 0.45776 9.77913 1.7688 9.44473 3.05136C9.12425 4.28032 7.90185 5.04672 6.65609 4.8C5.35593 4.5424 4.51065 3.27968 4.76809 1.97936C4.77737 1.93264 4.78809 1.88608 4.80009 1.84ZM22.4001 19.712C22.5652 20.5802 21.9951 21.4176 21.1271 21.5827C21.1247 21.5832 21.1225 21.5837 21.1201 21.584C20.4397 21.7216 19.7482 21.405 19.4081 20.8L16.7201 15.408L14.4001 15.872L14.0481 16H13.9521V19.44L14.9441 19.2H15.1681C15.6274 19.2086 15.9929 19.588 15.9842 20.0475C15.978 20.3778 15.777 20.6731 15.4721 20.8L7.47209 22.4C7.38201 22.4152 7.29017 22.4152 7.20009 22.4C6.74057 22.4 6.36809 22.0275 6.36809 21.568C6.36809 21.2322 6.57001 20.9291 6.88009 20.8L13.5201 19.472V16L8.36809 16.928C8.10569 16.9957 7.83049 16.9957 7.56809 16.928C7.02505 16.7893 6.59401 16.3766 6.43209 15.84H6.40009L4.80009 9.328C4.75017 9.10144 4.75017 8.86656 4.80009 8.64C4.94985 8.0208 5.45257 7.5496 6.08009 7.44L13.6001 6.608V0H13.9521V6.56H14.0481L14.4001 6.528L15.0401 6.4H15.3761C15.8038 6.50288 16.0682 6.93168 15.9681 7.36C15.8978 7.736 15.5665 8.00656 15.1841 8L14.4001 8.128H14.0481H13.9521V12.704H14.0481L14.4001 12.608L17.2961 12.032C17.9801 11.9757 18.6239 12.3619 18.8961 12.992L22.0961 19.296C22.2193 19.4173 22.3218 19.5578 22.4001 19.712ZM13.6001 8.208L9.60009 8.64L10.7841 13.344L13.6001 12.8V8.208Z" fill="white"/>
</g>
<defs>
<clipPath id="clip0_324_56428">
<rect width="24" height="24" fill="white"/>
</clipPath>
</defs>
</svg>
