<svg width="24" height="24" viewBox="0 0 24 24" fill="none" xmlns="http://www.w3.org/2000/svg">
<path d="M8.80001 1.6001L9.60001 3.2001H17.6L18.4 1.6001H8.80001ZM9.60001 4.0001V6.0001C9.60001 6.0001 9.60001 10.4001 13.6 10.4001C17.6 10.4001 17.6 6.0001 17.6 6.0001V4.0001H9.60001ZM3.17505 6.37818C2.29265 6.39194 1.58785 7.1177 1.60001 8.0001V14.4001C1.59985 15.4238 2.54753 16.1844 3.54689 15.9627L8.00001 14.9719V22.4001L17.4062 11.3126C17.1826 11.2471 16.9515 11.2001 16.7062 11.2001H10.4L4.80001 12.4063V8.0001C4.81233 7.09802 4.07697 6.3641 3.17505 6.37818ZM18.7968 12.3375L10.2594 22.4001H19.2V13.6939C19.2 13.1923 19.0498 12.7278 18.7968 12.3375Z" fill="white"/>
</svg>
