<svg width="24" height="24" viewBox="0 0 24 24" fill="none" xmlns="http://www.w3.org/2000/svg">
<path d="M21.5999 5.84203C21.5999 6.19049 21.4258 6.51592 21.1357 6.70921L11.9999 12.7998L2.864 6.70921C2.57406 6.51592 2.3999 6.19049 2.3999 5.84203C2.3999 5.26643 2.86653 4.7998 3.44213 4.7998H20.5577C21.1333 4.7998 21.5999 5.26643 21.5999 5.84203ZM21.5999 9.54721V17.5998C21.5999 18.4835 20.8836 19.1998 19.9999 19.1998H3.9999C3.11625 19.1998 2.3999 18.4835 2.3999 17.5998V9.54721C2.3999 9.22774 2.75597 9.03718 3.02179 9.2144L11.9999 15.1998L20.978 9.2144C21.2439 9.03718 21.5999 9.22774 21.5999 9.54721Z" fill="white"/>
</svg>
