<svg width="24" height="24" viewBox="0 0 24 24" fill="none" xmlns="http://www.w3.org/2000/svg">
<path d="M3.92895 13.7815C3.38879 14.7379 2.40159 16.4834 4.14879 17.6499C4.69791 18.0128 5.31279 18.2637 5.95839 18.3882C6.45023 18.4611 6.47455 19.2178 5.89679 19.2C5.28095 19.1691 2.28143 18.8906 1.79983 16.6408C1.55087 15.3267 1.83247 14.1495 2.60623 12.8719L3.72207 10.8992L1.63135 9.7101L7.19999 6.40002V12.8L5.11055 11.6891L3.92895 13.7815ZM10.72 3.25442C12.568 2.24962 13.6368 3.94242 14.2256 4.86562L15.515 6.88658L13.4896 8.17922L19.2 11.1776L18.8848 4.73602L16.8625 6.02658L15.6464 4.12482C14.8115 2.93138 14.2 2.04994 12.7104 1.65282C10.0912 1.1525 8.48111 4.19106 8.49759 4.17122C8.23535 4.63058 8.84255 5.03506 9.21919 4.50722C9.63231 3.99506 10.1424 3.56946 10.72 3.25442ZM21.2704 13.1536C21.1301 12.8501 20.3925 12.9275 20.6 13.5808C20.8099 14.2035 20.8952 14.8613 20.8512 15.5168C20.7024 17.616 18.6944 17.6 17.6 17.6H15.2V15.2L9.59999 18.4L15.1808 21.64L15.1881 19.2H17.6C19.0249 19.2245 20.1598 18.9186 21.12 18.0592C23.04 16.3616 21.2704 13.1536 21.2704 13.1536Z" fill="white"/>
</svg>
