<svg width="24" height="24" viewBox="0 0 24 24" fill="none" xmlns="http://www.w3.org/2000/svg">
<path d="M17.015 12.4329C17.015 13.0841 16.8868 13.7288 16.6376 14.3304C16.3884 14.932 16.0232 15.4786 15.5628 15.939C15.1024 16.3994 14.5558 16.7647 13.9542 17.0138C13.3526 17.263 12.7079 17.3913 12.0567 17.3913C10.7417 17.3913 9.48052 16.8689 8.55065 15.939C7.62078 15.0091 7.09839 13.748 7.09839 12.4329C7.09839 11.7818 7.22664 11.137 7.47582 10.5355C7.725 9.9339 8.09023 9.38729 8.55065 8.92687C9.01107 8.46645 9.55768 8.10122 10.1592 7.85204C10.7608 7.60286 11.4056 7.47461 12.0567 7.47461C12.7079 7.47461 13.3526 7.60286 13.9542 7.85204C14.5558 8.10122 15.1024 8.46645 15.5628 8.92687C16.0232 9.38729 16.3884 9.9339 16.6376 10.5355C16.8868 11.137 17.015 11.7818 17.015 12.4329Z" fill="white"/>
</svg>
