<svg width="24" height="24" viewBox="0 0 24 24" fill="none" xmlns="http://www.w3.org/2000/svg">
<path d="M15.2001 11.1998C14.4588 10.7522 13.7551 10.2449 13.0961 9.68304L9.6161 5.15344C9.50799 5.01055 9.35939 4.9035 9.18962 4.8462C9.01985 4.7889 8.83677 4.78401 8.66419 4.83216C8.4916 4.88031 8.3375 4.97928 8.22191 5.11619C8.10633 5.2531 8.03462 5.42162 8.0161 5.59984H8.0001V7.99984H5.1345C5.02834 8.00024 4.92316 7.97951 4.82509 7.93886C4.72703 7.8982 4.63803 7.83843 4.5633 7.76304C4.5633 7.76304 4.0001 6.39984 3.2001 6.39984H2.4001C2.18792 6.39984 1.98444 6.48412 1.83441 6.63415C1.68438 6.78418 1.6001 6.98767 1.6001 7.19984V14.3998H10.4001C12.8001 14.3998 13.6001 15.9998 16.0001 15.9998H22.4001V15.1998C22.4001 12.7998 16.8753 12.1502 15.2001 11.1998ZM15.2001 17.5998C14.3382 17.5755 13.4973 17.3292 12.7585 16.8846C11.7976 16.327 10.7108 16.0226 9.6001 15.9998H1.6001V18.3998C1.6001 18.612 1.68438 18.8155 1.83441 18.9655C1.98444 19.1156 2.18792 19.1998 2.4001 19.1998H8.8001C9.01227 19.1998 9.21575 19.1156 9.36578 18.9655C9.51581 18.8155 9.6001 18.612 9.6001 18.3998V17.5998C10.4619 17.6244 11.3028 17.8707 12.0417 18.315C13.0026 18.8727 14.0894 19.1771 15.2001 19.1998H21.6001C21.8123 19.1998 22.0158 19.1156 22.1658 18.9655C22.3158 18.8155 22.4001 18.612 22.4001 18.3998V17.5998H15.2001Z" fill="white"/>
</svg>
