<svg width="24" height="24" viewBox="0 0 24 24" fill="none" xmlns="http://www.w3.org/2000/svg">
<path d="M21.328 8.0001H18.4L17.776 4.2721C17.5198 3.12298 16.6533 2.2073 15.52 1.8881C14.9611 1.70826 14.379 1.6113 13.792 1.6001H10.208C9.62096 1.6113 9.03888 1.70826 8.48 1.8881C7.34672 2.2073 6.48016 3.12298 6.224 4.2721L5.6 8.0001H2.672C2.23024 7.99738 1.86992 8.35338 1.8672 8.7953C1.86672 8.87834 1.87904 8.9609 1.904 9.0401L4.912 19.1201C5.22624 20.1195 6.15248 20.7995 7.2 20.8001H16.8C17.8416 20.7926 18.7595 20.1139 19.072 19.1201L22.08 9.0401C22.2126 8.61866 21.9784 8.16954 21.557 8.0369C21.4829 8.01354 21.4058 8.00122 21.328 8.0001ZM7.232 8.0001L7.808 4.5281C7.93712 3.9481 8.40576 3.5049 8.992 3.4081C9.38608 3.28394 9.79504 3.21402 10.208 3.2001H13.792C14.2102 3.21258 14.6248 3.2825 15.024 3.4081C15.6102 3.5049 16.0789 3.9481 16.208 4.5281L16.768 8.0001H7.168H7.232Z" fill="white"/>
</svg>
