<svg width="24" height="24" viewBox="0 0 24 24" fill="none" xmlns="http://www.w3.org/2000/svg">
<g clip-path="url(#clip0_324_56442)">
<path d="M4.51972 17.023C10.9608 19.746 15.853 21.3339 22.7439 23.5169C22.885 23.5385 23.0151 23.4406 23.0367 23.2932C23.0583 23.1516 22.9613 23.0148 22.8197 22.9875C11.9655 19.555 3.445 15.7515 1.501 14.8673C1.29988 14.7862 1.06612 14.8783 0.990759 15.0756C0.909159 15.2777 0.996039 15.4956 1.1914 15.5719C1.67476 15.7899 2.15236 16.0025 2.61412 16.2046L1.08292 17.3777C0.909159 17.634 0.984999 17.9619 1.24036 18.1361C1.43044 18.2671 1.70212 18.2508 1.88644 18.1303L4.51972 17.023ZM22.298 10.1499L17.2844 5.5217L17.3952 5.53274C18.4104 5.53274 19.2303 4.7033 19.2303 3.68282C19.2303 2.66234 18.4104 1.83338 17.3952 1.83338C16.3743 1.83338 15.5544 2.66282 15.5544 3.6833C15.5544 4.07306 15.6759 4.43402 15.8808 4.73306L12.4815 3.51434L10.646 0.846017C10.5048 0.649217 10.2874 0.518177 10.0335 0.485537C9.55588 0.431297 9.11572 0.780257 9.06196 1.26602C9.04036 1.4681 9.08932 1.66442 9.18676 1.8281L11.0583 4.55642C11.1452 4.66538 11.2541 4.75802 11.3842 4.8185L13.5562 5.6753L9.99028 7.5089C9.49108 7.79258 9.1378 8.29466 9.04036 8.87882L9.05668 12.1587L5.75812 13.6534C5.389 13.8334 5.12308 14.2044 5.10676 14.647C5.07988 15.2801 5.56852 15.8091 6.19828 15.8369C6.39364 15.847 6.58372 15.8043 6.74692 15.7217L10.7828 13.8891C11.0708 13.7359 11.2877 13.458 11.3583 13.1191L11.353 11.0782L14.1543 13.5996L13.6383 17.8937L13.633 17.9758C13.6056 18.6084 14.0952 19.1436 14.7245 19.171C15.3159 19.1926 15.8208 18.7615 15.9024 18.1779L16.5053 13.2771L16.5106 13.2113C16.5212 12.8676 16.3863 12.5566 16.1578 12.3387L13.5629 10.0193L17.4725 8.0873L21.0999 11.4435C21.2626 11.6019 21.4853 11.6998 21.7244 11.6998C22.213 11.6945 22.6037 11.2961 22.5989 10.8103C22.5975 10.5483 22.4775 10.3135 22.298 10.1499Z" fill="white"/>
</g>
<defs>
<clipPath id="clip0_324_56442">
<rect width="24" height="24" fill="white"/>
</clipPath>
</defs>
</svg>
