<svg width="24" height="24" viewBox="0 0 24 24" fill="none" xmlns="http://www.w3.org/2000/svg">
<path d="M11.6957 21.2052H13.1776V2.53125H11.6957V21.2052ZM7.23998 5.94203H4.24896C3.78257 5.94203 3.36312 6.10982 2.99059 6.44536C2.71077 6.70585 2.5245 6.9948 2.4318 7.31214L1.1453 11.5888C1.10833 11.6821 1.08984 11.766 1.08984 11.8405C1.08984 12.2693 1.30397 12.4838 1.73224 12.4837C2.03083 12.4838 2.22677 12.316 2.32004 11.9804L3.49393 8.06627H4.13633L2.20743 15.0269H4.08088V20.4502C4.08087 20.9347 4.31376 21.177 4.77957 21.177C5.24537 21.177 5.4783 20.9347 5.4783 20.4502V14.9996H6.17786V20.4783C6.17786 20.9441 6.41074 21.177 6.87655 21.177C7.34235 21.177 7.57524 20.9441 7.57524 20.4783V15.0269H9.44786L7.49165 8.06627H8.1622L9.33609 11.9804C9.42936 12.316 9.625 12.4838 9.92306 12.4837C10.3519 12.4838 10.5663 12.2693 10.5663 11.8405C10.5663 11.7472 10.5478 11.6633 10.5108 11.5888L9.22433 7.31214C9.13106 7.01354 8.91692 6.72463 8.58195 6.44536C8.17184 6.10982 7.72453 5.94203 7.23998 5.94203ZM5.81442 5.63404C6.24266 5.63404 6.60597 5.48503 6.90427 5.18702C7.20257 4.88901 7.35175 4.53496 7.35175 4.12487C7.35175 3.69606 7.20257 3.33263 6.90427 3.03459C6.60597 2.73658 6.24266 2.58757 5.81442 2.58755C5.40435 2.58757 5.05015 2.73658 4.75184 3.03459C4.45354 3.33263 4.30441 3.69606 4.30441 4.12487C4.30441 4.53496 4.45354 4.88901 4.75184 5.18702C5.05015 5.48503 5.40435 5.63404 5.81442 5.63404ZM18.8909 5.60673C19.3009 5.60677 19.6551 5.4576 19.9535 5.1593C20.2517 4.86099 20.4009 4.50678 20.4009 4.09672C20.4009 3.66847 20.2517 3.30988 19.9535 3.02094C19.6551 2.73203 19.3009 2.58757 18.8909 2.58755C18.4808 2.58757 18.1268 2.73203 17.8288 3.02094C17.5307 3.30988 17.3817 3.66847 17.3817 4.09672C17.3817 4.50678 17.5307 4.86099 17.8288 5.1593C18.1268 5.4576 18.4808 5.60677 18.8909 5.60673ZM20.8761 5.91385H16.8784C16.3381 5.91389 15.8768 6.10498 15.4947 6.48716C15.1124 6.86938 14.9213 7.34003 14.9213 7.89906V12.5392C14.9213 12.9868 15.1263 13.2106 15.5364 13.2106C15.9277 13.2106 16.1234 12.9868 16.1234 12.5392V8.01083H16.8502V20.3111C16.8502 20.8702 17.1298 21.1497 17.6889 21.1497C18.2479 21.1497 18.5275 20.8702 18.5275 20.3111V13.1825H19.2543V20.3111C19.2543 20.8702 19.5339 21.1497 20.0929 21.1497C20.6708 21.1497 20.9597 20.8702 20.9597 20.3111V8.01083H21.6584V12.5392C21.6584 13.005 21.854 13.2379 22.2454 13.2379C22.6372 13.2379 22.8332 13.005 22.8332 12.5392V7.92637C22.8332 7.38608 22.6514 6.9156 22.288 6.51488C21.9246 6.11421 21.4539 5.91389 20.8761 5.91385Z" fill="white"/>
</svg>
