<svg width="24" height="24" viewBox="0 0 24 24" fill="none" xmlns="http://www.w3.org/2000/svg">
<g clip-path="url(#clip0_324_56449)">
<path d="M12.4018 12.9902C14.1975 12.9902 15.0305 14.3532 15.2057 16.289C15.2475 16.7522 15.2038 17.4273 15.1445 18.2092C14.9427 20.8073 14.7106 24 16.4405 24C17.9036 24 18.6553 21.1932 19.0889 17.9935C19.5077 14.8262 19.0642 13.2499 19.2824 11.8435C19.6983 9.17877 22.0244 6.78957 21.3058 3.39213C20.9079 1.50741 19.8701 0.620849 18.842 0.248129C16.4737 -0.613951 14.9446 1.04709 12.4018 1.04709C9.85902 1.04709 8.32998 -0.613951 5.96045 0.248129C4.93325 0.620849 3.8955 1.50741 3.49662 3.39213C2.77902 6.78957 5.10414 9.17877 5.52102 11.8435C5.73894 13.2499 5.29565 14.826 5.71445 17.9935C6.14814 21.1929 6.90006 24 8.36286 24C10.0921 24 9.86094 20.8073 9.65886 18.2095C9.59934 17.4276 9.55614 16.7524 9.59766 16.2892C9.77214 14.3532 10.6162 12.9902 12.4018 12.9902Z" fill="white"/>
</g>
<defs>
<clipPath id="clip0_324_56449">
<rect width="24" height="24" fill="white"/>
</clipPath>
</defs>
</svg>
