<svg width="24" height="24" viewBox="0 0 24 24" fill="none" xmlns="http://www.w3.org/2000/svg">
<path d="M4.79995 1.6001C3.91627 1.6001 3.19995 2.31642 3.19995 3.2001V16.0001C3.19995 16.8838 3.91627 17.6001 4.79995 17.6001H19.2C20.0836 17.6001 20.8 16.8838 20.8 16.0001V3.2001C20.8 2.31642 20.0836 1.6001 19.2 1.6001H4.79995ZM9.19995 2.4001H9.21558H14.8156C15.0365 2.4001 15.2156 2.57914 15.2156 2.8001C15.2156 3.02106 15.0365 3.2001 14.8156 3.2001H9.19995C8.97899 3.2001 8.79995 3.02106 8.79995 2.8001C8.79995 2.57914 8.97899 2.4001 9.19995 2.4001ZM5.59995 4.8001H11.2V11.2001H5.59995C5.15819 11.2001 4.79995 10.8419 4.79995 10.4001V5.6001C4.79995 5.15834 5.15819 4.8001 5.59995 4.8001ZM12.8 4.8001H18.4C18.8417 4.8001 19.2 5.15834 19.2 5.6001V10.4001C19.2 10.8419 18.8417 11.2001 18.4 11.2001H12.8V4.8001ZM7.99995 12.8001C8.88363 12.8001 9.59995 13.5164 9.59995 14.4001C9.59995 15.2838 8.88363 16.0001 7.99995 16.0001C7.11627 16.0001 6.39995 15.2838 6.39995 14.4001C6.39995 13.5164 7.11627 12.8001 7.99995 12.8001ZM16 12.8001C16.8836 12.8001 17.6 13.5164 17.6 14.4001C17.6 15.2838 16.8836 16.0001 16 16.0001C15.1163 16.0001 14.4 15.2838 14.4 14.4001C14.4 13.5164 15.1163 12.8001 16 12.8001ZM16.7124 19.1907C16.6089 19.1995 16.5039 19.2298 16.4062 19.2813C16.0489 19.4695 15.8883 19.8944 16.0312 20.272L16.3031 20.8001H7.69683L7.90308 20.3688C8.0594 19.9556 7.85073 19.4939 7.43745 19.3376C7.05985 19.1949 6.63499 19.3555 6.44683 19.7126L4.84683 22.9126C4.81291 23.0048 4.79771 23.102 4.79995 23.2001C4.79995 23.6419 5.15819 24.0001 5.59995 24.0001C5.88827 23.9985 6.15209 23.8392 6.28745 23.5845V23.5032H6.39995L6.89683 22.4001H17.1031L17.6 23.5032V23.5845C17.7353 23.8392 17.9991 23.9985 18.2875 24.0001C18.7292 24.0001 19.0875 23.6419 19.0875 23.2001C19.1193 23.074 19.1193 22.9418 19.0875 22.8157L17.4875 19.6157C17.333 19.3226 17.0231 19.1643 16.7124 19.1907Z" fill="white"/>
</svg>
