<svg width="24" height="24" viewBox="0 0 24 24" fill="none" xmlns="http://www.w3.org/2000/svg">
<path d="M5.83958 20.5298L3.8584 23.9056L21.025 23.8926L19.013 20.521" fill="white"/>
<path fill-rule="evenodd" clip-rule="evenodd" d="M7.47046 0.216797C6.51822 0.216797 5.60489 0.656472 4.93154 1.43902C4.2582 2.22157 3.87988 3.28303 3.87988 4.38972V16.5131C3.87988 18.3131 5.1355 19.7724 6.68431 19.7724H17.902C19.4508 19.7724 20.7065 18.3131 20.7065 16.5131V4.38972C20.7065 3.28303 20.3281 2.22157 19.6548 1.43902C18.9815 0.656472 18.0681 0.216797 17.1159 0.216797H7.47046ZM6.68431 3.47606H17.902V9.99459H6.68431V3.47606ZM9.48874 14.8835C9.48874 15.7835 8.86097 16.5131 8.08653 16.5131C7.31215 16.5131 6.68431 15.7835 6.68431 14.8835C6.68431 13.9834 7.31215 13.2539 8.08653 13.2539C8.86097 13.2539 9.48874 13.9834 9.48874 14.8835ZM17.902 14.8835C17.902 15.7835 17.2743 16.5131 16.4998 16.5131C15.7254 16.5131 15.0976 15.7835 15.0976 14.8835C15.0976 13.9834 15.7254 13.2539 16.4998 13.2539C17.2743 13.2539 17.902 13.9834 17.902 14.8835Z" fill="white"/>
</svg>
