<svg width="24" height="24" viewBox="0 0 24 24" fill="none" xmlns="http://www.w3.org/2000/svg">
<path d="M22.4 9.19995C22.4181 8.10187 21.7923 7.09451 20.8 6.62395C20.716 5.58491 19.8422 4.78811 18.8 4.79995C18.6419 4.81259 18.4861 4.84491 18.336 4.89595C18.2389 3.83995 17.3041 3.06267 16.2483 3.15979C15.8344 3.19787 15.4441 3.36923 15.136 3.64795C15.136 2.54331 14.2406 1.64795 13.136 1.64795C12.0313 1.64795 11.136 2.54331 11.136 3.64795C11.136 3.64795 11.2 3.67995 11.2 3.72795C10.3817 3.02603 9.14943 3.12043 8.44751 3.93883C8.21055 4.21515 8.05551 4.55211 7.99999 4.91195C7.74671 4.83115 7.48175 4.79339 7.21599 4.79995C5.89055 4.78891 4.80703 5.85435 4.79599 7.17979C4.79327 7.49947 4.85455 7.81627 4.97599 8.11195C3.70799 8.46635 2.96735 9.78171 3.32175 11.0497C3.54607 11.8524 4.17327 12.4796 4.97599 12.7039C5.38127 13.9566 6.72543 14.6436 7.97807 14.2384C8.83455 13.9612 9.46191 13.2254 9.59999 12.3359C9.89279 12.5905 10.2549 12.7521 10.64 12.7999V20.7999L7.99999 22.3999H16L13.44 20.7999V17.5999C14.6209 16.1735 16.1464 15.0721 17.872 14.3999C19.1539 14.7006 20.4368 13.9052 20.7374 12.6235C20.7829 12.4297 20.804 12.231 20.8 12.0319C20.8046 11.9467 20.8046 11.8612 20.8 11.7759C21.7923 11.3054 22.4181 10.298 22.4 9.19995ZM13.44 16.416V10.9119C13.8725 11.6811 14.6856 12.1579 15.568 12.1599H16.016C16.0409 12.8625 16.3747 13.5184 16.928 13.952C15.6229 14.5504 14.4401 15.3859 13.44 16.416Z" fill="white"/>
</svg>
