<svg width="24" height="24" viewBox="0 0 24 24" fill="none" xmlns="http://www.w3.org/2000/svg">
<path fill-rule="evenodd" clip-rule="evenodd" d="M10 4L11 0H9L8 4H7.4142C6.5087 4 5.6403 4.35971 5 5C4.35971 5.6403 4 6.5087 4 7.4142V18C4 18.7403 4.4022 19.3867 5 19.7325V20.5C5 21.3285 5.67155 22 6.5 22C7.32845 22 8 21.3285 8 20.5V20H16V20.5C16 21.3285 16.6715 22 17.5 22C18.3285 22 19 21.3285 19 20.5V19.7325C19.5978 19.3867 20 18.7403 20 18V7.4142C20 6.5087 19.6403 5.6403 19 5C18.3597 4.35971 17.4913 4 16.5858 4H15L16 0H14L13 4H10ZM18 8H6V14H18V8ZM7 18C7.5523 18 8 17.5523 8 17C8 16.4477 7.5523 16 7 16C6.4477 16 6 16.4477 6 17C6 17.5523 6.4477 18 7 18ZM18 17C18 17.5523 17.5523 18 17 18C16.4477 18 16 17.5523 16 17C16 16.4477 16.4477 16 17 16C17.5523 16 18 16.4477 18 17Z" fill="white"/>
</svg>
