<svg width="24" height="24" viewBox="0 0 24 24" fill="none" xmlns="http://www.w3.org/2000/svg">
<path d="M14 2C14 2.55229 13.5523 3 13 3C12.4477 3 12 2.55229 12 2C12 1.44771 12.4477 1 13 1C13.5523 1 14 1.44771 14 2Z" fill="white"/>
<path d="M11 3C11 3.55229 10.5523 4 10 4C9.4477 4 9 3.55229 9 3C9 2.44771 9.4477 2 10 2C10.5523 2 11 2.44771 11 3Z" fill="white"/>
<path d="M21.2169 3.9764C21.756 3.85659 22.096 3.32242 21.9762 2.78328C21.8564 2.24415 21.3222 1.90422 20.783 2.02403L2.78304 6.02401C2.2439 6.14381 1.90397 6.67801 2.02378 7.21716C2.14359 7.75626 2.67777 8.09621 3.2169 7.97641L21.2169 3.9764Z" fill="white"/>
<path fill-rule="evenodd" clip-rule="evenodd" d="M2 13.9999C2 11.7908 3.79086 9.99993 6 9.99993H8.27925L9.0446 7.70503L11.3216 7.19903L10.3876 9.99993H13.6127L12.5859 6.91808L14.5486 6.48193L15.7207 9.99993H18C20.2092 9.99993 22 11.7908 22 13.9999V19.9999C22 21.1045 21.1046 21.9999 20 21.9999H4C2.89543 21.9999 2 21.1045 2 19.9999V13.9999ZM16 11.9999H18C19.1046 11.9999 20 12.8954 20 13.9999V17.9999H16V11.9999ZM6 11.9999C4.89543 11.9999 4 12.8954 4 13.9999V17.9999H8V11.9999H6ZM10 11.9999H14V19.9999H10V11.9999Z" fill="white"/>
</svg>
