<svg width="24" height="24" viewBox="0 0 24 24" fill="none" xmlns="http://www.w3.org/2000/svg">
<path d="M14.442 15.963H13.4548V13.8247H4.96924V18.1014C4.98338 20.4632 6.89429 22.3664 9.23746 22.3521C10.7336 22.3432 12.1143 21.5404 12.8714 20.2397H14.442C15.6136 20.2397 16.5634 19.2824 16.5634 18.1014C16.5634 16.9204 15.6136 15.963 14.442 15.963ZM14.442 19.1705H13.3063C13.4004 18.8219 13.4503 18.4626 13.4547 18.1014V17.0322H14.442C15.0278 17.0322 15.5027 17.5109 15.5027 18.1014C15.5027 18.6919 15.0278 19.1705 14.442 19.1705Z" fill="white"/>
<path d="M17.2441 3.04199L15.9459 10.1273C15.7558 11.1643 18.2587 11.6487 18.2178 12.7037L17.8933 21.0772C17.8434 22.3645 19.1915 22.3654 19.1915 22.3654C19.1915 22.3654 20.5397 22.3645 20.4898 21.0772L20.1653 12.7037C20.1245 11.6505 22.4157 11.1826 22.4372 10.1273L21.139 3.04199H20.4898L20.8144 8.19491L19.8407 8.83902L19.5161 3.04199H18.867L18.5424 8.83902L17.5687 8.19491L17.8933 3.04199H17.2441Z" fill="white"/>
<path d="M11.6654 10.1314C14.2355 7.87918 14.8541 0.46582 14.8541 0.46582C13.4193 1.04022 11.8777 1.38199 10.3038 1.47457C7.67312 1.67017 5.23695 1.99711 3.79566 3.24897C1.60502 5.18265 1.05337 7.92668 2.30972 9.86875C3.68724 7.97699 9.36633 5.26369 9.36633 5.26369C5.29116 7.8177 0.606953 12.6659 0.418816 13.2862C0.230697 13.9066 1.5795 13.9289 1.78996 13.6076C2.00041 13.2862 2.81035 11.9924 3.70319 11.2128C5.92571 12.596 9.32168 12.188 11.6654 10.1314Z" fill="white"/>
</svg>
