<svg width="24" height="24" viewBox="0 0 24 24" fill="none" xmlns="http://www.w3.org/2000/svg">
<path fill-rule="evenodd" clip-rule="evenodd" d="M8.94358 18.7884H16.0426C16.0426 17.858 15.9706 17.6735 14.2993 17.6735C14.5663 16.935 15.6516 15.1484 16.2547 15.1484C16.7882 15.1484 17.4247 15.1755 17.4247 16.2979C17.4247 17.5721 19.7506 19.6265 20.3146 18.7884C21.1551 17.5393 18.8697 17.9202 18.8697 14.9078C18.8697 10.7867 21.4784 11.3734 21.4784 9.05797C21.4784 7.89958 21.1313 7.74315 21.1313 6.91496C21.1313 5.82042 22.1772 5.88394 21.9737 4.97642C21.8332 4.34955 21.7232 3.84683 21.6412 3.08877C21.5831 2.5509 21.5645 1.97762 20.9585 2.00067C20.2465 2.02776 19.9764 3.1832 18.8697 3.26604C17.7652 3.34872 16.8235 2.39919 16.396 2.53481C15.9721 2.66929 16.1055 3.7294 16.3567 4.48235C16.7517 5.66577 17.6132 7.20455 16.0426 7.43623C14.472 7.66791 11.7706 7.89958 9.82311 10.2743C7.87558 12.649 7.94747 15.4358 7.18452 16.2979C4.62394 19.191 2 18.0031 2 20.4101C2 21.4878 3.98052 22.2636 4.29464 21.916C4.60875 21.5685 1.62556 20.533 4.96348 19.3097C7.81514 18.2646 8.06971 18.0512 8.94358 18.7884Z" fill="white"/>
</svg>
